<mxfile host="Electron" modified="2025-02-19T08:40:00.212Z" agent="Mozilla/5.0 (X11; Linux x86_64) AppleWebKit/537.36 (KHTML, like Gecko) draw.io/24.6.4 Chrome/124.0.6367.207 Electron/30.0.6 Safari/537.36" etag="s3i-ij-NrR9IFPPZL2XI" version="24.6.4" type="device">
  <diagram name="Page-1" id="muFzt7UatpygXQ48J8TT">
    <mxGraphModel dx="1034" dy="782" grid="1" gridSize="10" guides="1" tooltips="1" connect="1" arrows="1" fold="1" page="1" pageScale="1" pageWidth="850" pageHeight="1100" math="0" shadow="0">
      <root>
        <mxCell id="0" />
        <mxCell id="1" parent="0" />
        <mxCell id="lRWKl-mnWXyhmrKXMSrb-1" value="&lt;b&gt;&lt;font style=&quot;font-size: 18px;&quot;&gt;Diagrama de Clases&lt;/font&gt;&lt;/b&gt;" style="text;html=1;align=center;verticalAlign=middle;resizable=0;points=[];autosize=1;strokeColor=none;fillColor=none;" vertex="1" parent="1">
          <mxGeometry x="330" y="10" width="190" height="40" as="geometry" />
        </mxCell>
      </root>
    </mxGraphModel>
  </diagram>
</mxfile>
